<svg id="svg" xmlns="http://www.w3.org/2000/svg" xmlns:xlink="http://www.w3.org/1999/xlink" width="400" height="400" viewBox="0, 0, 400,400"><g id="svgg"><path id="path0" d="M317.001 5.367 C 310.880 13.683,309.120 18.016,302.774 40.400 C 301.153 46.120,299.127 52.960,298.273 55.600 C 296.783 60.207,295.228 65.639,293.482 72.337 C 292.876 74.664,292.478 75.181,291.944 74.337 C 290.839 72.591,291.076 65.456,292.319 63.074 C 293.737 60.356,292.691 59.200,288.811 59.200 C 285.490 59.200,283.085 63.551,276.328 81.783 C 274.415 86.944,272.169 92.524,271.337 94.183 C 270.506 95.842,269.183 99.900,268.399 103.200 C 265.591 115.009,257.600 132.174,257.600 126.396 C 257.600 124.400,263.031 98.895,268.732 74.117 C 270.944 64.501,273.345 53.161,274.067 48.917 C 275.619 39.795,280.094 21.244,282.382 14.454 C 286.723 1.568,283.725 3.856,270.800 23.293 C 260.424 38.896,258.885 40.807,249.886 49.258 C 241.224 57.393,239.771 59.157,236.466 65.555 C 234.428 69.501,232.447 72.924,232.062 73.161 C 231.397 73.572,226.400 64.171,226.400 62.509 C 226.400 62.073,225.182 60.700,223.693 59.458 C 222.071 58.104,220.756 56.121,220.409 54.506 C 220.055 52.853,218.473 50.510,216.316 48.443 C 214.382 46.590,212.800 44.505,212.800 43.808 C 212.800 41.509,208.221 38.396,205.608 38.918 C 202.957 39.449,202.875 39.270,201.680 30.400 C 201.139 26.381,201.247 24.564,202.153 22.400 C 202.799 20.860,203.644 16.540,204.033 12.800 C 204.421 9.060,204.989 5.134,205.295 4.075 C 206.525 -0.178,203.733 3.624,200.432 10.696 C 193.725 25.065,192.888 27.086,190.736 34.097 C 188.146 42.537,188.240 42.397,183.657 44.686 C 180.243 46.391,176.800 49.737,176.800 51.350 C 176.800 51.754,174.616 54.107,171.946 56.578 C 168.494 59.774,166.390 62.592,164.659 66.336 C 158.956 78.671,155.053 88.678,153.299 95.468 C 152.267 99.460,151.103 102.826,150.711 102.949 C 149.955 103.187,145.134 95.941,134.379 78.400 C 130.737 72.460,125.382 63.931,122.478 59.447 C 119.575 54.964,115.580 48.680,113.600 45.483 C 108.325 36.967,106.781 35.410,100.491 32.264 C 97.361 30.698,93.007 28.139,90.815 26.577 C 86.341 23.388,86.073 22.898,96.031 36.126 C 101.522 43.420,109.190 54.927,112.265 60.488 C 112.769 61.400,115.989 92.236,115.996 96.228 C 116.002 99.551,114.255 98.291,101.963 86.110 C 96.130 80.329,89.042 73.372,86.213 70.650 C 83.384 67.927,79.687 63.337,77.999 60.450 C 74.076 53.742,73.262 53.773,73.988 60.600 C 74.760 67.867,78.508 76.850,86.505 90.598 C 95.929 106.802,97.302 109.845,99.231 118.816 C 104.600 143.785,122.265 198.514,135.376 230.800 C 141.388 245.603,143.304 254.979,147.962 292.400 C 152.706 330.501,157.040 340.888,170.862 347.274 C 176.703 349.972,177.360 350.495,177.037 352.184 C 176.838 353.223,177.575 356.107,178.675 358.593 C 180.909 363.646,180.733 365.736,177.916 367.581 C 175.387 369.239,175.428 372.387,178.031 376.218 C 180.005 379.122,181.907 388.588,181.003 391.002 C 178.684 397.191,191.869 400.373,206.318 397.110 C 215.315 395.078,217.147 393.456,217.441 387.265 C 217.627 383.352,218.131 381.596,219.641 379.617 C 222.022 376.495,222.039 376.170,219.931 373.927 C 217.992 371.862,218.799 369.289,221.672 368.377 C 222.911 367.984,223.229 367.397,222.895 366.123 C 222.646 365.175,222.883 363.171,223.422 361.669 C 224.199 359.499,224.195 358.870,223.400 358.603 C 219.139 357.171,223.047 354.236,229.485 354.033 C 237.712 353.775,248.000 344.652,248.000 337.616 C 248.000 337.149,249.406 333.805,251.124 330.184 C 254.271 323.552,255.563 319.205,262.003 293.600 C 263.940 285.900,267.893 271.320,270.787 261.200 C 273.682 251.080,276.934 238.480,278.014 233.200 C 279.095 227.920,280.711 221.080,281.607 218.000 C 284.767 207.129,288.156 193.948,288.907 189.600 C 289.326 187.180,290.530 179.980,291.583 173.600 C 293.169 163.991,294.040 160.901,296.655 155.600 C 298.391 152.080,301.443 145.600,303.437 141.200 C 305.431 136.800,308.209 130.680,309.610 127.600 C 332.365 77.571,343.839 46.515,342.541 38.467 C 341.746 33.538,342.184 25.337,343.593 18.770 C 343.972 16.999,343.895 16.719,343.288 17.662 C 342.841 18.356,342.090 21.330,341.621 24.271 C 339.550 37.233,332.261 57.047,327.360 63.036 C 322.619 68.830,315.392 74.400,312.617 74.400 C 310.860 74.400,309.536 75.130,307.903 77.000 C 302.226 83.499,300.702 85.127,301.209 84.151 C 301.510 83.574,301.919 81.954,302.120 80.551 C 302.321 79.148,302.998 76.380,303.624 74.400 C 306.193 66.287,309.600 49.424,309.600 44.826 C 309.600 42.121,309.999 38.219,310.486 36.154 C 312.988 25.548,317.278 11.044,319.359 6.153 C 322.431 -1.065,321.873 -1.251,317.001 5.367 " stroke="none" fill="#000000" fill-rule="evenodd"></path></g></svg>