<svg id="svg" xmlns="http://www.w3.org/2000/svg" xmlns:xlink="http://www.w3.org/1999/xlink" width="400" height="400" viewBox="0, 0, 400,400"><g id="svgg"><path id="path0" d="M198.800 66.975 C 157.778 68.134,124.842 73.454,105.032 82.122 C 99.295 84.632,89.999 88.913,89.105 89.456 C 80.860 94.468,73.725 100.221,68.000 106.474 C 64.260 110.559,60.660 114.466,60.000 115.157 C 52.628 122.875,41.503 153.836,40.262 170.085 C 39.321 182.421,39.967 216.405,41.181 218.369 C 41.400 218.724,41.258 221.575,40.865 224.704 C 40.321 229.038,40.433 231.475,41.334 234.928 C 41.985 237.422,42.336 240.158,42.114 241.008 C 41.891 241.859,42.261 244.410,42.935 246.677 C 43.608 248.945,44.664 252.488,45.280 254.550 C 45.896 256.613,46.400 259.437,46.400 260.827 C 46.400 262.216,46.895 264.309,47.500 265.477 C 48.104 266.644,49.236 269.580,50.015 272.000 C 50.794 274.420,51.931 276.982,52.542 277.692 C 53.153 278.403,55.403 282.557,57.542 286.924 C 59.680 291.291,62.035 295.365,62.774 295.978 C 63.512 296.591,64.797 298.427,65.629 300.057 C 66.460 301.687,68.928 304.332,71.112 305.936 C 73.296 307.539,75.200 309.112,75.342 309.431 C 75.776 310.407,81.818 314.765,85.045 316.429 C 86.719 317.293,89.539 319.350,91.312 321.000 C 93.522 323.058,95.274 324.000,96.890 324.000 C 98.185 324.000,101.901 325.260,105.146 326.800 C 108.391 328.340,111.436 329.600,111.911 329.600 C 112.387 329.600,115.932 330.648,119.788 331.929 C 131.545 335.835,137.336 336.530,180.386 339.205 C 198.286 340.318,210.668 340.196,218.501 338.830 C 222.191 338.186,227.164 337.465,229.552 337.228 C 231.940 336.990,236.482 335.902,239.647 334.809 C 244.970 332.972,252.255 330.986,263.200 328.389 C 265.620 327.815,269.726 326.593,272.325 325.673 C 274.924 324.753,278.030 324.000,279.227 324.000 C 280.425 324.000,281.838 323.477,282.369 322.837 C 282.900 322.198,285.237 321.121,287.562 320.445 C 289.888 319.769,292.223 318.696,292.751 318.060 C 293.279 317.423,294.856 316.652,296.255 316.345 C 297.655 316.038,299.700 315.090,300.800 314.237 C 301.900 313.385,306.616 310.283,311.281 307.344 C 323.498 299.646,346.400 278.904,346.400 275.537 C 346.400 275.293,347.250 273.947,348.288 272.547 C 358.716 258.482,363.559 235.034,359.224 219.600 C 356.895 211.308,355.661 204.109,355.249 196.400 C 354.832 188.617,354.525 187.210,352.595 184.226 L 350.413 180.852 351.181 171.427 C 351.938 162.134,351.921 161.960,349.975 159.018 C 348.670 157.047,348.000 154.905,348.000 152.709 C 348.000 145.606,344.494 128.202,341.901 122.437 C 328.120 91.792,282.439 69.723,228.400 67.603 C 222.240 67.362,214.860 67.071,212.000 66.957 C 209.140 66.843,203.200 66.851,198.800 66.975 " stroke="none" fill="#000000" fill-rule="evenodd"></path></g></svg>