<svg id="svg" xmlns="http://www.w3.org/2000/svg" xmlns:xlink="http://www.w3.org/1999/xlink" width="400" height="400" viewBox="0, 0, 400,400"><g id="svgg"><path id="path0" d="M230.657 54.630 C 229.357 56.110,226.974 59.680,225.362 62.563 C 223.703 65.531,221.745 67.985,220.852 68.218 C 219.296 68.625,218.965 69.463,218.009 75.406 C 217.330 79.624,215.047 80.982,210.635 79.794 C 207.736 79.014,207.056 79.082,205.725 80.287 C 201.732 83.900,188.800 77.802,188.800 72.305 C 188.800 69.890,186.836 71.766,186.024 74.956 C 185.106 78.565,183.545 80.800,181.944 80.800 C 181.229 80.800,180.805 82.168,180.642 85.000 C 180.440 88.511,180.095 89.331,178.541 90.000 C 176.597 90.837,176.587 90.999,178.051 98.190 C 178.935 102.532,177.973 104.663,174.997 104.950 C 172.097 105.229,172.260 104.323,172.896 116.630 C 173.250 123.490,172.840 123.970,166.600 123.988 C 161.151 124.004,160.381 128.312,164.410 136.235 C 165.966 139.295,166.261 140.791,165.871 143.635 C 165.285 147.909,164.419 148.134,162.670 144.464 C 161.586 142.192,161.080 141.834,159.683 142.350 C 157.556 143.134,156.000 142.607,156.000 141.101 C 156.000 139.396,153.263 134.405,150.615 131.280 C 148.340 128.597,148.281 128.579,146.221 129.929 C 142.557 132.329,134.310 128.880,130.800 123.479 C 126.204 116.408,124.028 118.673,124.011 130.543 C 123.994 142.557,121.904 143.539,112.675 135.871 C 107.810 131.830,103.237 129.869,96.094 128.760 C 89.597 127.752,89.066 127.907,90.409 130.417 C 91.725 132.876,90.832 133.430,83.777 134.527 C 78.106 135.408,77.600 135.640,77.600 137.361 C 77.600 138.659,76.925 139.502,75.400 140.108 C 71.761 141.554,70.082 142.338,68.400 143.376 C 67.520 143.920,65.979 144.838,64.976 145.416 L 63.152 146.468 66.576 149.580 C 74.881 157.130,81.858 161.183,92.000 164.351 C 98.025 166.233,99.278 166.974,103.000 170.856 C 108.095 176.171,108.081 175.992,103.400 176.035 C 101.310 176.054,98.160 176.589,96.400 177.223 C 91.778 178.888,91.042 178.730,87.873 175.386 C 85.250 172.617,78.070 168.372,75.200 167.893 C 74.540 167.783,71.390 168.553,68.200 169.604 L 62.400 171.515 62.400 174.904 C 62.400 179.062,61.474 179.493,52.400 179.556 L 46.000 179.600 46.222 181.748 C 46.392 183.390,45.780 184.427,43.622 186.148 C 41.923 187.504,40.800 189.104,40.800 190.169 C 40.800 192.499,38.506 194.538,31.033 198.848 C 18.962 205.810,16.608 219.233,25.215 232.023 C 28.943 237.562,28.838 237.899,22.600 240.365 C 15.161 243.307,15.200 243.225,15.200 256.165 L 15.200 267.224 17.800 268.811 C 20.374 270.382,23.141 271.401,27.400 272.343 C 30.231 272.970,30.172 273.938,27.085 277.454 C 14.085 292.260,26.664 306.943,46.400 300.000 C 52.230 297.949,52.799 298.003,52.804 300.600 C 52.837 316.475,76.852 324.316,86.197 311.502 L 87.876 309.200 90.138 311.022 C 99.099 318.240,106.159 319.645,111.950 315.363 C 115.056 313.067,115.337 313.104,119.625 316.378 C 132.284 326.040,148.728 319.835,148.782 305.375 C 148.801 300.448,148.794 300.457,153.706 299.644 C 155.304 299.379,158.147 298.001,160.025 296.581 C 161.903 295.162,163.887 293.666,164.435 293.258 C 165.112 292.753,166.289 293.240,168.115 294.781 C 176.268 301.663,187.923 301.859,194.176 295.220 L 197.082 292.134 199.799 294.206 C 207.753 300.273,223.599 294.531,226.328 284.592 C 227.236 281.287,226.499 266.158,225.163 260.690 C 224.684 258.729,224.932 258.485,228.666 257.244 C 230.876 256.510,234.147 254.850,235.935 253.555 C 239.942 250.652,239.578 250.633,243.246 253.947 C 246.813 257.169,250.583 258.379,257.200 258.424 C 259.840 258.442,262.900 258.971,264.000 259.600 C 267.026 261.330,274.581 261.099,278.728 259.150 C 281.033 258.066,283.430 257.586,285.712 257.750 L 289.186 258.000 289.794 262.255 C 290.553 267.560,291.613 269.600,293.612 269.600 C 294.628 269.600,295.748 270.739,296.842 272.882 C 298.246 275.634,298.832 276.104,300.472 275.790 C 302.323 275.437,308.000 279.951,308.000 281.777 C 308.000 282.120,308.549 282.400,309.220 282.400 C 311.041 282.400,311.780 279.631,312.872 268.735 C 314.516 252.317,322.887 249.628,327.577 264.012 C 330.484 272.925,337.894 283.519,338.968 280.297 C 340.147 276.760,341.145 276.548,345.457 278.917 C 348.842 280.776,349.745 280.995,350.320 280.095 C 350.818 279.313,351.852 279.144,353.850 279.519 C 355.654 279.858,356.881 279.716,357.245 279.127 C 357.628 278.508,359.237 278.372,362.146 278.714 L 366.477 279.223 365.949 276.412 C 365.603 274.566,365.728 273.600,366.311 273.600 C 367.560 273.600,367.416 271.539,365.972 268.746 C 364.868 266.611,364.868 266.324,365.972 265.900 C 367.687 265.242,367.512 264.160,365.200 261.129 C 364.100 259.687,363.200 257.931,363.200 257.228 C 363.200 256.067,363.703 255.741,367.050 254.729 C 370.183 253.782,359.730 245.326,352.572 243.018 C 338.192 238.380,341.679 230.710,357.198 232.841 C 369.397 234.516,373.101 232.748,368.283 227.549 C 366.903 226.061,366.190 224.422,366.235 222.843 C 366.287 221.009,365.635 219.869,363.554 218.154 C 360.565 215.690,360.796 212.800,363.981 212.800 C 366.081 212.800,366.585 211.696,366.585 207.092 C 366.585 203.123,367.835 200.800,369.972 200.800 C 371.735 200.800,372.074 198.454,371.037 193.434 C 370.163 189.202,370.199 188.576,371.355 187.929 C 374.663 186.078,374.019 172.424,370.562 171.109 C 369.440 170.683,367.660 169.403,366.606 168.266 C 363.911 165.358,359.735 166.092,350.044 171.177 C 342.387 175.195,336.838 176.404,335.559 174.334 C 335.265 173.857,333.482 172.807,331.598 171.999 C 325.147 169.234,323.779 160.047,327.519 144.607 C 330.020 134.279,330.056 133.232,328.000 130.618 C 327.120 129.500,326.400 127.930,326.400 127.130 C 326.400 124.634,324.607 121.600,323.133 121.600 C 322.357 121.600,320.705 120.751,319.461 119.713 C 313.804 114.991,310.270 114.244,307.537 117.192 C 305.150 119.768,302.846 119.124,303.603 116.092 C 303.890 114.941,304.632 113.436,305.253 112.748 C 307.479 110.276,307.612 106.568,305.487 106.267 C 303.154 105.937,302.995 102.599,305.008 96.167 L 306.333 91.935 304.367 91.187 C 302.594 90.513,302.399 89.985,302.387 85.820 L 302.373 81.200 300.771 83.700 C 299.634 85.474,298.105 86.499,295.506 87.226 C 292.510 88.065,291.166 89.119,288.121 93.016 C 286.075 95.637,282.736 99.829,280.702 102.333 C 276.169 107.913,275.046 110.049,272.885 117.200 C 271.064 123.226,269.752 125.237,266.000 127.749 C 257.603 133.373,255.923 126.906,262.211 113.162 C 269.110 98.082,270.675 87.324,267.937 73.800 C 266.918 68.770,267.091 68.807,263.292 72.800 C 258.186 78.167,255.809 77.257,251.278 68.200 C 248.833 63.313,247.035 61.991,246.111 64.400 C 245.407 66.233,243.344 65.828,243.056 63.800 C 242.891 62.643,242.157 61.909,241.000 61.744 C 240.010 61.604,239.200 60.970,239.200 60.337 C 239.200 59.703,238.438 58.558,237.506 57.792 C 236.574 57.026,235.184 55.396,234.416 54.169 L 233.020 51.938 230.657 54.630 M226.400 126.353 C 226.400 129.021,225.368 130.063,224.183 128.591 C 223.260 127.446,224.305 124.000,225.574 124.000 C 226.028 124.000,226.400 125.059,226.400 126.353 M67.681 222.837 C 68.347 225.492,67.668 226.070,65.203 224.947 C 62.146 223.554,62.740 221.084,66.185 220.863 C 66.726 220.828,67.400 221.717,67.681 222.837 M57.453 243.462 C 57.747 245.947,56.797 246.207,54.935 244.149 C 53.914 243.021,53.835 242.485,54.581 241.739 C 55.992 240.328,57.166 241.032,57.453 243.462 " stroke="none" fill="#000000" fill-rule="evenodd"></path></g></svg>