<svg id="svg" xmlns="http://www.w3.org/2000/svg" xmlns:xlink="http://www.w3.org/1999/xlink" width="400" height="400" viewBox="0, 0, 400,400"><g id="svgg"><path id="path0" d="M219.984 3.232 C 215.286 12.440,195.839 31.349,185.277 36.978 C 173.728 43.132,170.733 47.494,175.274 51.540 C 176.792 52.893,177.596 54.258,177.353 55.072 C 176.702 57.257,174.435 66.637,173.987 69.000 C 173.580 71.145,173.433 71.200,168.094 71.200 L 162.619 71.200 162.208 66.077 C 161.734 60.169,155.777 46.767,151.112 41.112 C 144.825 33.490,128.591 16.049,126.579 14.754 C 123.973 13.078,123.918 13.001,132.066 22.400 C 150.057 43.152,159.470 60.657,157.102 68.958 C 156.378 71.496,156.144 71.626,151.174 72.246 C 115.008 76.763,97.211 85.134,60.000 115.130 C -11.866 173.062,-12.559 271.104,58.400 341.514 C 98.211 381.018,145.735 395.232,214.400 388.172 C 260.839 383.397,272.836 380.197,302.400 364.695 C 364.081 332.352,398.143 269.217,388.449 205.200 C 379.616 146.868,343.861 109.086,283.200 93.982 C 278.158 92.726,272.721 90.729,269.600 88.985 C 266.740 87.387,263.050 85.423,261.400 84.621 C 259.563 83.728,258.400 82.597,258.400 81.703 C 258.400 78.858,277.587 58.400,280.256 58.400 C 281.016 58.400,281.312 57.872,281.071 56.949 C 280.698 55.522,295.599 37.536,300.133 33.940 C 302.676 31.924,303.586 30.400,302.247 30.400 C 301.671 30.400,297.779 33.112,293.600 36.426 C 289.420 39.741,282.760 44.674,278.800 47.389 C 271.924 52.103,254.294 66.436,252.060 69.128 C 247.122 75.078,240.881 76.588,228.624 74.800 C 224.101 74.141,215.938 73.331,210.484 73.000 C 202.954 72.544,200.410 72.111,199.909 71.200 C 198.374 68.409,190.921 51.236,189.427 47.046 C 187.064 40.421,187.406 39.830,201.701 25.822 C 217.082 10.750,225.911 -0.000,222.908 0.000 C 222.207 0.000,220.891 1.454,219.984 3.232 M292.000 55.339 C 289.140 55.747,286.499 56.382,286.130 56.750 C 285.297 57.583,291.770 56.888,297.165 55.566 C 301.914 54.402,299.358 54.290,292.000 55.339 " stroke="none" fill="#000000" fill-rule="evenodd"></path></g></svg>