<svg id="svg" xmlns="http://www.w3.org/2000/svg" xmlns:xlink="http://www.w3.org/1999/xlink" width="400" height="400" viewBox="0, 0, 400,400"><g id="svgg"><path id="path0" d="M244.800 57.261 C 222.468 63.552,215.097 71.859,210.753 95.629 C 210.499 97.020,209.841 97.260,206.228 97.278 C 197.339 97.322,193.617 101.559,197.160 107.603 C 200.732 113.700,201.028 113.600,179.425 113.603 C 112.826 113.615,89.647 123.294,68.591 159.884 C 35.433 217.508,45.451 288.909,96.215 356.764 C 115.197 382.137,128.906 391.849,154.933 398.365 C 163.334 400.467,233.842 400.887,243.200 398.890 C 269.488 393.280,282.530 386.316,296.989 370.167 C 364.042 295.278,374.608 199.003,322.161 140.800 C 303.634 120.240,286.079 114.963,232.000 113.696 L 210.800 113.200 210.282 108.400 C 209.712 103.114,210.614 100.118,212.343 101.553 C 222.518 109.997,244.515 107.822,260.898 96.751 C 275.279 87.032,289.245 64.443,284.966 57.824 C 283.895 56.167,250.353 55.697,244.800 57.261 " stroke="none" fill="#000000" fill-rule="evenodd"></path></g></svg>