<svg id="svg" xmlns="http://www.w3.org/2000/svg" xmlns:xlink="http://www.w3.org/1999/xlink" width="400" height="400" viewBox="0, 0, 400,400"><g id="svgg"><path id="path0" d="M204.313 20.338 C 203.998 21.158,204.443 22.368,205.454 23.445 C 206.861 24.942,207.183 26.600,207.583 34.404 C 207.843 39.462,208.252 44.524,208.493 45.653 C 208.882 47.481,206.771 56.800,205.968 56.800 C 205.793 56.800,204.415 54.910,202.906 52.600 C 201.397 50.290,198.341 47.140,196.115 45.600 C 193.888 44.060,191.848 42.171,191.580 41.402 C 190.440 38.125,183.650 38.726,182.307 42.222 C 180.992 45.648,181.890 48.588,187.006 57.600 C 196.069 73.565,196.392 74.363,194.543 76.213 C 193.177 77.578,192.587 77.682,190.444 76.935 C 185.783 75.310,184.264 76.673,184.539 82.229 L 184.776 87.013 163.788 87.410 C 128.621 88.076,111.355 94.961,84.204 119.146 C 16.801 179.186,21.813 286.659,94.400 337.781 C 113.889 351.507,166.892 374.859,189.619 379.732 C 221.810 386.634,275.898 372.588,313.798 347.482 C 319.476 343.721,321.237 342.026,337.438 324.738 C 355.009 305.987,361.982 282.249,363.035 237.600 C 364.227 187.083,363.098 178.485,352.407 156.643 C 339.684 130.648,301.662 101.433,267.354 91.291 L 259.600 88.999 259.348 85.101 C 258.759 75.992,259.878 74.941,272.910 72.361 C 281.493 70.662,282.903 69.749,283.615 65.431 C 283.926 63.544,284.567 61.523,285.039 60.939 C 286.322 59.353,284.157 58.261,280.800 58.801 C 279.260 59.049,275.261 59.560,271.914 59.937 C 268.566 60.314,265.080 61.022,264.166 61.511 C 259.813 63.841,260.548 62.212,274.235 39.200 C 281.073 27.704,279.078 16.806,271.640 25.023 C 269.848 27.003,265.019 30.849,260.908 33.571 C 253.676 38.360,243.200 47.967,243.200 49.810 C 243.200 51.083,239.114 55.200,237.850 55.200 C 237.273 55.200,236.800 54.422,236.800 53.470 C 236.800 51.772,235.015 45.042,233.358 40.493 C 230.031 31.362,206.381 14.950,204.313 20.338 " stroke="none" fill="#000000" fill-rule="evenodd"></path></g></svg>