<svg id="svg" xmlns="http://www.w3.org/2000/svg" xmlns:xlink="http://www.w3.org/1999/xlink" width="400" height="400" viewBox="0, 0, 400,400"><g id="svgg"><path id="path0" d="M230.984 15.112 C 207.343 22.923,191.186 48.626,184.416 89.192 L 181.880 104.383 173.434 104.583 C 159.416 104.914,149.117 107.822,142.205 113.400 L 139.209 115.818 134.205 113.774 C 111.224 104.390,80.078 122.360,69.610 151.043 C 61.870 172.251,62.629 186.687,75.674 266.400 C 86.464 332.338,102.960 357.035,138.800 360.911 C 143.200 361.387,147.482 362.137,148.315 362.578 C 168.084 373.037,203.348 373.704,226.000 364.047 C 229.960 362.359,236.937 360.236,241.504 359.328 C 256.252 356.399,266.690 350.101,280.457 335.827 C 299.544 316.036,305.112 301.644,314.438 248.000 C 315.394 242.500,316.878 234.940,317.737 231.200 C 331.891 169.527,323.043 134.029,291.429 125.648 C 289.575 125.156,287.503 123.954,286.823 122.977 C 276.994 108.837,269.554 106.220,238.407 105.947 L 215.614 105.746 215.065 103.073 C 213.818 96.994,215.833 79.848,218.857 70.800 C 225.195 51.842,228.749 48.055,240.240 48.018 C 249.019 47.989,252.915 44.834,252.942 37.731 C 252.950 35.679,253.313 31.066,253.749 27.480 C 254.541 20.973,253.923 17.600,251.939 17.600 C 251.497 17.600,250.160 16.886,248.968 16.014 C 245.679 13.607,236.874 13.165,230.984 15.112 " stroke="none" fill="#000000" fill-rule="evenodd"></path></g></svg>