<svg id="svg" xmlns="http://www.w3.org/2000/svg" xmlns:xlink="http://www.w3.org/1999/xlink" width="400" height="400" viewBox="0, 0, 400,400"><g id="svgg"><path id="path0" d="M246.165 48.580 C 245.970 48.921,245.550 50.639,245.232 52.399 C 244.406 56.965,238.284 71.483,236.797 72.402 C 236.234 72.750,230.546 70.899,227.304 69.312 C 226.147 68.746,224.578 68.424,223.819 68.596 C 223.059 68.769,221.239 67.996,219.775 66.879 C 199.928 51.742,142.157 53.671,106.873 70.649 C 77.433 84.816,56.499 105.790,36.060 141.600 C 28.083 155.574,16.000 188.855,16.000 196.849 L 16.000 199.450 20.662 194.671 C 25.962 189.238,34.018 184.389,39.724 183.198 C 41.856 182.752,50.260 181.298,58.400 179.966 C 81.560 176.175,90.260 172.895,102.080 163.498 C 106.224 160.202,118.782 152.530,122.735 150.879 L 125.734 149.625 122.898 153.413 C 106.167 175.750,100.070 196.713,101.028 228.603 C 104.557 345.978,251.609 401.030,335.560 316.405 C 391.731 259.784,384.642 164.868,320.800 118.792 C 298.058 102.378,264.257 92.206,248.599 97.065 C 244.202 98.429,243.704 98.020,244.692 93.851 C 246.741 85.202,250.592 71.519,252.022 67.806 C 254.832 60.513,255.412 56.843,254.079 54.809 C 252.530 52.444,246.616 47.790,246.165 48.580 M230.293 76.107 C 234.788 77.974,235.018 78.561,233.246 83.645 C 232.623 85.430,231.861 89.128,231.552 91.863 C 230.866 97.921,230.508 98.182,225.923 95.963 C 222.365 94.240,218.686 94.121,215.000 95.607 C 212.850 96.473,213.251 94.803,216.906 87.661 C 224.407 72.999,223.890 73.446,230.293 76.107 " stroke="none" fill="#000000" fill-rule="evenodd"></path></g></svg>