<svg id="svg" xmlns="http://www.w3.org/2000/svg" xmlns:xlink="http://www.w3.org/1999/xlink" width="400" height="400" viewBox="0, 0, 400,400"><g id="svgg"><path id="path0" d="M240.858 22.182 C 239.308 24.063,238.400 26.062,238.400 27.594 C 238.400 30.018,237.542 31.133,231.300 36.818 L 228.600 39.277 229.148 46.281 C 229.734 53.778,227.819 61.684,225.170 62.701 C 224.527 62.948,223.995 63.791,223.988 64.575 C 223.982 65.359,223.404 67.620,222.703 69.600 C 221.764 72.256,221.549 74.809,221.885 79.333 C 222.339 85.461,222.337 85.470,219.370 89.336 C 217.736 91.465,216.014 93.903,215.543 94.755 C 214.147 97.278,213.330 96.973,210.800 92.984 C 204.305 82.743,186.650 76.165,158.800 73.610 C 127.010 70.693,106.800 83.903,106.800 107.600 C 106.800 129.726,121.040 138.865,151.200 136.096 C 192.844 132.273,196.012 131.409,205.791 121.203 L 209.375 117.462 210.220 124.081 C 210.956 129.841,210.878 131.225,209.622 134.750 C 208.828 136.977,207.796 141.701,207.330 145.247 C 206.798 149.297,205.693 153.215,204.359 155.786 C 202.458 159.451,202.334 160.176,203.176 162.727 C 204.412 166.471,203.709 168.494,199.748 172.600 C 194.758 177.771,187.320 176.411,179.723 168.938 C 171.393 160.743,159.306 159.414,131.427 163.631 C 98.834 168.560,87.455 176.976,76.448 204.298 C 71.361 216.923,80.193 228.058,97.660 231.040 C 103.265 231.997,102.558 232.830,92.800 236.771 C 75.980 243.564,69.280 257.049,76.528 269.522 C 85.573 285.086,96.521 290.119,128.000 293.187 C 146.523 294.993,147.899 295.190,148.471 296.114 C 149.503 297.784,145.954 302.175,138.360 308.625 C 123.182 321.516,110.361 346.445,110.412 362.966 C 110.459 378.115,124.297 398.731,133.364 397.160 C 145.212 395.107,159.813 384.552,164.966 374.314 C 166.990 370.294,171.200 360.830,171.200 360.301 C 171.200 360.048,171.697 358.707,172.304 357.321 C 172.912 355.934,174.207 352.820,175.183 350.400 C 177.237 345.308,181.151 337.094,183.853 332.207 C 186.191 327.978,186.681 328.172,195.600 336.855 C 213.110 353.903,219.163 358.697,231.391 365.202 C 257.323 378.997,274.131 382.196,290.400 376.434 C 311.583 368.932,315.412 360.873,305.997 343.600 C 297.287 327.621,289.501 321.352,269.409 314.139 C 263.804 312.126,258.764 310.107,258.209 309.651 C 257.654 309.194,254.140 307.242,250.400 305.313 C 238.767 299.311,241.567 297.612,257.741 300.857 C 281.117 305.548,306.385 295.161,306.397 280.857 C 306.409 266.638,285.528 245.684,266.509 240.828 C 240.263 234.127,210.701 236.356,202.902 245.624 C 201.326 247.497,200.270 248.045,198.606 247.854 C 194.391 247.369,195.303 239.563,200.189 234.299 C 204.186 229.995,204.838 218.930,202.026 203.140 C 200.773 196.106,200.765 195.231,201.931 192.442 C 202.629 190.772,203.200 188.356,203.200 187.075 C 203.200 185.261,203.819 184.381,206.000 183.094 C 207.777 182.046,208.800 180.832,208.800 179.774 C 208.800 178.856,209.462 176.641,210.271 174.853 C 212.106 170.795,213.596 164.789,213.612 161.389 C 213.636 156.405,214.673 156.495,219.023 161.856 C 227.612 172.443,251.204 192.615,261.990 198.595 C 275.379 206.018,299.029 208.026,306.241 202.353 C 307.327 201.499,308.899 200.800,309.733 200.800 C 310.567 200.800,311.448 200.170,311.690 199.400 C 311.931 198.630,312.820 196.521,313.665 194.712 C 317.071 187.418,312.011 167.225,304.216 157.014 C 301.069 152.891,301.496 152.033,306.699 152.012 C 318.818 151.964,333.268 147.162,339.522 141.104 L 344.102 136.669 343.679 131.067 C 342.288 112.648,322.623 93.479,298.400 86.931 C 261.882 77.059,244.033 77.590,233.861 88.849 C 232.295 90.582,230.557 92.000,229.999 92.000 C 228.494 92.000,229.451 81.925,231.308 78.232 C 232.129 76.599,232.800 74.332,232.800 73.192 C 232.800 72.053,233.312 70.131,233.937 68.921 C 236.931 63.131,238.663 56.275,238.615 50.400 C 238.567 44.569,238.635 44.355,241.010 42.800 C 242.475 41.841,244.663 38.878,246.470 35.404 C 248.129 32.217,250.771 28.040,252.343 26.122 C 256.990 20.451,256.432 19.200,249.258 19.200 C 243.371 19.200,243.294 19.228,240.858 22.182 M228.012 113.419 C 232.151 122.251,232.583 121.274,223.306 124.066 C 218.232 125.594,215.381 120.324,218.710 115.571 C 219.320 114.700,220.262 112.370,220.801 110.393 C 221.341 108.417,221.926 106.309,222.101 105.710 C 222.685 103.706,224.679 106.306,228.012 113.419 M194.910 211.371 C 198.068 219.189,198.014 220.034,194.003 225.600 C 192.577 227.580,190.859 231.360,190.187 234.000 C 189.515 236.640,188.390 239.880,187.687 241.200 C 186.985 242.520,186.403 244.140,186.395 244.800 C 186.375 246.544,179.321 253.600,177.599 253.600 C 176.794 253.600,175.115 252.453,173.868 251.051 C 166.872 243.188,160.297 239.766,140.400 233.631 C 136.152 232.321,133.200 230.984,133.200 230.368 C 133.200 228.930,141.986 225.463,156.428 221.205 C 177.860 214.884,183.234 212.104,188.668 204.525 C 191.366 200.762,191.620 200.594,191.847 202.418 C 191.983 203.508,193.361 207.537,194.910 211.371 M194.400 277.492 C 194.400 279.413,201.354 286.424,205.313 288.495 C 214.964 293.544,213.484 301.500,202.642 302.854 C 197.153 303.540,196.238 303.041,193.387 297.806 C 192.170 295.571,190.100 292.592,188.787 291.186 C 186.173 288.388,185.847 287.055,187.451 285.723 C 188.030 285.243,189.351 283.039,190.388 280.825 C 192.014 277.353,194.400 275.371,194.400 277.492 " stroke="none" fill="#000000" fill-rule="evenodd"></path></g></svg>