<svg id="svg" xmlns="http://www.w3.org/2000/svg" xmlns:xlink="http://www.w3.org/1999/xlink" width="400" height="400" viewBox="0, 0, 400,400"><g id="svgg"><path id="path0" d="M290.581 52.631 C 278.029 55.265,265.668 60.268,255.294 66.915 C 245.630 73.107,244.088 73.747,238.852 73.747 C 233.405 73.747,232.360 74.470,229.187 80.433 C 228.287 82.125,226.312 85.233,224.799 87.338 C 223.287 89.443,221.501 92.748,220.831 94.681 C 220.161 96.615,219.454 98.634,219.261 99.170 C 218.995 99.908,218.369 99.861,216.669 98.974 C 209.946 95.467,199.929 99.814,193.006 109.242 C 187.087 117.304,176.043 127.259,163.928 135.454 C 121.338 164.263,96.105 210.268,98.017 255.624 C 99.160 282.737,113.945 310.867,131.412 319.162 C 135.188 320.955,138.818 322.692,139.479 323.022 C 140.140 323.352,140.698 324.554,140.718 325.695 C 140.783 329.390,146.845 333.906,150.468 332.959 C 151.370 332.723,152.684 333.367,153.865 334.624 L 155.790 336.673 187.514 336.659 L 219.238 336.644 225.905 333.898 C 240.078 328.060,254.613 315.283,265.903 298.738 C 284.815 271.024,285.479 209.619,267.320 167.535 C 265.703 163.788,263.544 158.737,262.522 156.313 C 261.500 153.888,259.766 150.100,258.669 147.896 C 257.571 145.691,256.251 141.812,255.734 139.275 C 255.217 136.738,253.928 132.049,252.869 128.854 C 251.810 125.660,250.934 122.817,250.923 122.538 C 250.911 122.258,260.551 121.854,272.345 121.641 C 295.863 121.214,299.513 120.644,313.026 115.280 C 332.179 107.678,354.719 84.083,351.123 75.401 C 346.937 65.295,325.474 55.686,301.804 53.319 C 299.158 53.055,295.912 52.716,294.589 52.567 C 293.267 52.417,291.463 52.446,290.581 52.631 M226.854 99.275 C 226.854 100.478,223.775 102.779,222.894 102.234 C 221.570 101.416,223.419 98.597,225.279 98.597 C 226.145 98.597,226.854 98.902,226.854 99.275 " stroke="none" fill="#000000" fill-rule="evenodd"></path></g></svg>