<svg id="svg" xmlns="http://www.w3.org/2000/svg" xmlns:xlink="http://www.w3.org/1999/xlink" width="400" height="400" viewBox="0, 0, 400,400"><g id="svgg"><path id="path0" d="M216.400 13.564 C 208.026 17.034,208.394 25.025,217.099 28.757 C 224.965 32.129,228.493 38.247,227.832 47.374 C 227.388 53.526,226.980 53.691,222.582 49.505 C 216.300 43.527,211.790 40.367,208.000 39.287 C 203.239 37.931,198.780 35.246,194.505 31.163 C 188.409 25.340,171.311 19.639,157.200 18.725 C 146.724 18.046,110.959 23.322,108.022 25.980 C 107.281 26.651,106.055 27.200,105.299 27.200 C 103.818 27.200,95.725 32.103,94.839 33.537 C 94.176 34.610,82.442 42.400,81.489 42.400 C 81.110 42.400,80.800 43.096,80.800 43.946 C 80.800 44.796,80.080 45.721,79.199 46.000 C 78.319 46.280,77.203 47.247,76.719 48.151 C 76.236 49.054,74.935 50.809,73.829 52.050 C 71.485 54.681,69.600 58.100,69.600 59.720 C 69.600 60.345,68.970 61.819,68.200 62.996 C 67.430 64.173,66.729 66.230,66.643 67.568 C 66.267 73.388,65.917 75.950,65.431 76.436 C 65.144 76.722,65.093 77.433,65.317 78.016 C 65.540 78.598,65.335 79.801,64.859 80.689 C 64.252 81.824,64.247 82.458,64.845 82.828 C 65.323 83.123,65.478 84.333,65.200 85.600 C 64.922 86.867,65.077 88.077,65.555 88.372 C 66.136 88.731,66.149 89.374,65.597 90.406 C 64.995 91.530,65.086 92.080,65.951 92.565 C 67.138 93.229,67.549 97.463,66.867 102.000 C 66.669 103.320,66.289 106.200,66.024 108.400 C 65.759 110.600,65.236 113.120,64.862 114.000 C 63.932 116.189,62.636 120.953,61.201 127.455 C 59.685 134.325,58.952 135.674,55.860 137.273 C 51.052 139.759,58.456 141.187,63.571 138.760 C 66.242 137.493,66.749 137.086,74.433 130.056 C 76.871 127.825,80.617 124.560,82.757 122.800 C 84.898 121.040,87.043 119.219,87.524 118.752 C 89.809 116.541,99.270 108.778,103.268 105.834 C 105.726 104.025,108.672 101.432,109.817 100.072 C 110.961 98.712,112.190 97.592,112.548 97.582 C 112.907 97.572,114.439 96.132,115.952 94.382 C 117.466 92.632,119.086 91.189,119.552 91.175 C 120.019 91.161,121.643 89.901,123.161 88.375 C 124.680 86.849,126.484 85.600,127.169 85.600 C 127.854 85.600,128.865 84.880,129.414 84.000 C 129.964 83.120,130.975 82.400,131.660 82.400 C 133.007 82.400,136.719 79.825,142.352 74.984 C 144.305 73.305,147.005 71.444,148.352 70.848 C 149.698 70.253,154.580 68.081,159.200 66.022 C 163.820 63.963,173.680 59.878,181.111 56.946 C 195.238 51.371,200.886 47.524,202.111 42.644 C 204.072 34.830,225.613 52.884,225.588 62.320 C 225.562 72.065,213.307 107.200,209.933 107.200 C 209.685 107.200,204.918 105.889,199.341 104.287 C 169.172 95.620,157.347 106.218,138.965 158.400 C 132.626 176.395,122.736 200.971,118.122 210.193 C 96.867 252.676,96.264 284.709,115.957 325.200 C 134.777 363.897,169.790 387.372,200.000 381.548 C 203.590 380.856,212.632 380.596,229.200 380.710 C 254.366 380.882,261.769 380.305,270.224 377.513 C 292.747 370.074,322.937 333.639,334.014 300.524 C 346.326 263.722,340.712 237.720,312.977 203.088 C 303.080 190.729,299.816 185.738,293.486 173.278 C 267.574 122.279,256.702 110.630,233.277 108.775 C 228.039 108.360,223.606 107.872,223.424 107.691 C 222.968 107.235,224.299 102.291,228.402 89.200 C 238.975 55.465,239.951 43.910,233.369 30.400 C 225.784 14.830,222.120 11.195,216.400 13.564 " stroke="none" fill="#000000" fill-rule="evenodd"></path></g></svg>