<svg id="svg" xmlns="http://www.w3.org/2000/svg" xmlns:xlink="http://www.w3.org/1999/xlink" width="400" height="400" viewBox="0, 0, 400,400"><g id="svgg"><path id="path0" d="M343.927 88.739 C 332.696 91.363,324.650 94.404,313.293 100.318 C 307.082 103.553,301.100 106.469,300.000 106.798 C 298.900 107.128,294.854 109.333,291.009 111.699 C 287.163 114.064,283.836 116.000,283.615 116.000 C 283.395 116.000,281.656 117.189,279.751 118.643 C 277.846 120.097,275.053 121.775,273.544 122.373 C 272.035 122.970,267.560 125.325,263.600 127.607 C 249.322 135.834,229.763 146.034,200.400 160.565 C 198.200 161.653,191.164 165.199,184.765 168.445 C 178.366 171.690,169.546 175.937,165.165 177.883 C 160.784 179.828,153.420 183.094,148.800 185.139 C 144.180 187.185,137.771 190.114,134.558 191.649 C 131.345 193.183,123.065 196.632,116.158 199.313 C 109.251 201.993,102.520 204.648,101.200 205.213 C 99.880 205.778,94.660 207.919,89.600 209.972 C 79.953 213.885,75.630 215.830,65.399 220.863 C 40.250 233.234,17.190 259.462,18.647 274.036 C 19.048 278.051,16.422 281.600,13.048 281.600 C 12.580 281.600,11.741 282.148,11.185 282.818 C 10.571 283.558,9.511 283.851,8.487 283.566 C 7.200 283.207,7.074 283.284,7.958 283.893 C 8.886 284.531,8.679 284.800,6.921 285.241 C 5.713 285.544,4.502 285.569,4.229 285.296 C 3.957 285.023,4.333 284.800,5.067 284.800 C 5.800 284.800,6.400 284.440,6.400 284.000 C 6.400 282.825,4.606 283.025,2.612 284.422 C 0.810 285.684,0.932 288.000,2.800 288.000 C 3.366 288.000,4.036 288.540,4.289 289.200 C 4.543 289.860,5.571 290.405,6.575 290.410 C 7.579 290.416,10.682 291.136,13.471 292.010 C 16.260 292.885,19.714 293.600,21.147 293.600 C 23.129 293.600,24.843 294.556,28.325 297.603 C 34.394 302.914,38.808 304.859,56.494 310.019 C 75.635 315.602,102.002 312.676,130.400 301.817 C 131.060 301.565,131.960 301.270,132.400 301.162 C 133.970 300.776,154.095 292.687,159.275 290.360 C 162.176 289.056,167.036 287.130,170.075 286.080 C 173.114 285.029,179.560 282.468,184.400 280.387 C 189.240 278.307,196.800 275.100,201.200 273.262 C 205.600 271.424,210.142 269.398,211.294 268.760 C 222.017 262.820,260.884 244.000,262.427 244.000 C 263.252 244.000,282.543 233.989,286.584 231.465 C 288.225 230.439,289.910 229.600,290.327 229.600 C 290.744 229.600,291.561 229.126,292.143 228.548 C 292.724 227.969,295.720 226.109,298.800 224.414 C 301.880 222.719,306.020 220.190,308.000 218.793 C 309.980 217.396,312.236 216.025,313.014 215.746 C 313.791 215.468,317.282 213.251,320.772 210.820 C 324.261 208.389,327.308 206.400,327.543 206.400 C 327.779 206.400,332.460 203.336,337.946 199.590 C 343.432 195.845,348.568 192.546,349.360 192.260 C 350.152 191.974,351.340 191.248,352.000 190.647 C 352.660 190.047,355.720 187.699,358.800 185.430 C 387.020 164.642,396.425 149.328,396.918 123.360 C 396.987 119.752,397.348 116.800,397.722 116.800 C 398.095 116.800,398.400 116.260,398.400 115.600 C 398.400 114.940,398.044 114.400,397.608 114.400 C 396.727 114.400,391.649 104.172,391.753 102.609 C 391.790 102.063,391.558 101.778,391.240 101.975 C 390.921 102.173,389.336 100.978,387.719 99.322 C 385.049 96.587,377.587 92.556,369.200 89.317 C 364.114 87.353,351.132 87.056,343.927 88.739 M396.950 112.050 C 397.143 112.628,397.773 113.258,398.350 113.450 C 398.950 113.650,399.250 113.350,399.050 112.750 C 398.858 112.172,398.228 111.543,397.650 111.350 C 397.050 111.150,396.750 111.450,396.950 112.050 " stroke="none" fill="#000000" fill-rule="evenodd"></path></g></svg>