<svg id="svg" xmlns="http://www.w3.org/2000/svg" xmlns:xlink="http://www.w3.org/1999/xlink" width="400" height="400" viewBox="0, 0, 400,400"><g id="svgg"><path id="path0" d="M50.800 45.935 C 28.390 55.268,24.934 59.709,33.771 67.827 C 35.486 69.402,35.710 70.175,35.396 73.438 C 34.828 79.357,38.386 96.681,41.456 102.944 C 44.450 109.051,40.064 120.076,30.071 131.557 C 18.624 144.710,16.331 151.330,17.034 169.200 C 18.528 207.212,49.640 253.753,89.294 277.297 C 137.688 306.029,210.278 304.710,254.800 274.289 C 260.162 270.626,262.303 269.682,268.000 268.469 C 295.566 262.600,322.633 248.538,326.026 238.322 C 326.720 236.233,327.808 234.091,328.444 233.564 C 331.464 231.057,327.491 228.355,311.400 221.975 C 306.891 220.187,306.930 220.074,314.882 211.824 C 320.900 205.582,321.703 204.416,321.278 202.542 C 319.726 195.705,319.800 195.506,325.025 192.394 C 330.562 189.095,342.607 180.175,348.453 175.044 C 350.624 173.139,355.128 169.524,358.463 167.011 C 364.536 162.433,376.815 150.279,381.159 144.545 C 384.078 140.692,384.778 130.561,382.344 127.390 C 381.580 126.395,381.130 124.911,381.344 124.092 C 381.893 121.995,378.100 120.800,369.101 120.235 C 356.138 119.421,344.969 121.537,307.237 131.951 C 278.646 139.842,264.718 141.799,236.800 141.848 C 199.466 141.913,178.893 135.657,136.171 111.250 C 129.005 107.157,119.285 102.204,114.571 100.245 C 98.726 93.659,95.956 91.212,88.875 77.547 C 86.496 72.956,83.858 68.206,83.013 66.990 C 81.983 65.508,81.632 64.060,81.947 62.590 C 82.641 59.352,80.162 55.959,73.864 51.529 C 70.859 49.414,67.217 46.676,65.772 45.442 C 62.270 42.454,58.891 42.565,50.800 45.935 " stroke="none" fill="#000000" fill-rule="evenodd"></path></g></svg>