<svg id="svg" xmlns="http://www.w3.org/2000/svg" xmlns:xlink="http://www.w3.org/1999/xlink" width="400" height="400" viewBox="0, 0, 400,400"><g id="svgg"><path id="path0" d="M107.924 5.758 C 107.316 7.211,106.814 8.730,106.809 9.133 C 106.804 9.537,106.350 10.017,105.800 10.200 C 105.250 10.383,104.800 9.963,104.800 9.267 C 104.800 7.093,103.320 7.883,103.053 10.200 C 102.849 11.972,102.387 12.407,100.677 12.438 C 98.324 12.480,96.000 14.051,96.000 15.600 C 96.000 16.153,95.199 17.137,94.219 17.787 C 92.644 18.833,92.549 19.213,93.398 21.075 C 94.285 23.024,94.176 23.275,91.938 24.432 C 90.319 25.269,89.640 26.132,89.885 27.042 C 90.086 27.789,90.464 29.360,90.724 30.534 C 91.019 31.864,92.328 33.343,94.199 34.460 C 98.869 37.248,102.445 40.896,104.001 44.461 C 106.175 49.443,123.599 62.528,134.987 67.731 C 138.404 69.292,142.460 71.736,144.000 73.161 C 147.549 76.447,152.513 79.789,159.477 83.582 C 164.099 86.099,164.891 86.833,164.542 88.282 C 164.316 89.227,163.008 95.220,161.637 101.600 C 157.403 121.298,155.935 123.059,133.707 135.104 C 77.773 165.413,57.198 195.022,57.201 245.200 C 57.205 305.792,95.934 354.644,159.087 373.716 C 171.214 377.378,177.441 381.816,174.726 384.863 C 172.526 387.331,173.339 389.380,177.000 390.596 C 179.335 391.372,180.476 392.237,180.642 393.360 C 180.897 395.081,184.593 396.000,191.264 396.000 C 192.937 396.000,194.528 396.360,194.800 396.800 C 195.072 397.240,196.004 397.600,196.872 397.600 C 197.740 397.600,198.657 398.140,198.911 398.800 C 199.472 400.262,201.056 400.334,203.315 399.000 C 204.670 398.200,205.081 398.200,205.371 399.000 C 205.872 400.383,207.952 400.256,208.507 398.809 C 208.984 397.567,213.866 395.832,218.000 395.436 C 220.425 395.204,225.634 396.350,228.189 397.678 C 230.135 398.690,230.400 398.600,230.400 396.928 C 230.400 395.200,232.895 393.932,239.192 392.464 C 243.459 391.468,252.424 386.291,251.493 385.359 C 250.440 384.306,253.193 381.475,256.764 379.939 C 258.921 379.011,261.307 377.565,262.067 376.726 C 262.827 375.887,264.254 375.200,265.238 375.200 C 266.223 375.200,267.194 374.750,267.397 374.200 C 268.047 372.431,267.118 371.200,265.133 371.200 C 261.676 371.200,263.181 369.286,270.256 364.684 C 283.753 355.905,300.265 340.473,310.459 327.109 C 376.653 240.337,345.669 142.965,243.438 116.480 C 212.225 108.394,202.887 102.091,195.543 84.149 C 191.784 74.965,176.262 60.673,160.560 51.940 C 152.445 47.426,144.716 39.759,138.037 29.597 C 132.081 20.535,127.571 15.200,125.868 15.200 C 124.660 15.200,121.648 9.387,121.618 7.000 C 121.589 4.723,119.135 5.576,118.167 8.200 C 117.391 10.303,116.319 9.905,114.400 6.800 C 113.448 5.260,112.368 4.000,112.000 4.000 C 111.632 4.000,110.813 3.801,110.180 3.558 C 109.420 3.267,108.653 4.015,107.924 5.758 " stroke="none" fill="#000000" fill-rule="evenodd"></path></g></svg>