<svg id="svg" xmlns="http://www.w3.org/2000/svg" xmlns:xlink="http://www.w3.org/1999/xlink" width="400" height="400" viewBox="0, 0, 400,400"><g id="svgg"><path id="path0" d="M268.260 25.167 C 265.469 26.381,263.923 28.426,262.316 33.028 C 261.656 34.916,260.646 36.188,259.629 36.408 C 258.733 36.602,250.451 38.601,241.223 40.850 C 226.806 44.365,223.825 44.859,220.023 44.361 C 214.527 43.642,201.688 43.865,197.291 44.756 C 170.116 50.265,149.415 62.468,130.997 83.836 C 125.753 89.921,114.306 108.197,112.457 113.437 C 111.840 115.188,109.467 120.530,107.184 125.310 C 103.325 133.389,97.907 148.233,96.119 155.624 C 95.696 157.371,94.442 162.400,93.332 166.800 C 78.658 224.942,86.473 315.605,108.181 339.067 C 112.979 344.253,117.952 352.108,119.913 357.600 C 120.935 360.460,122.612 364.960,123.641 367.600 C 124.670 370.240,125.736 373.210,126.010 374.200 C 126.284 375.190,126.844 376.000,127.254 376.000 C 128.288 376.000,128.190 374.926,126.838 371.416 C 123.939 363.892,123.084 349.061,125.140 341.945 C 125.767 339.775,126.714 335.120,127.245 331.600 C 128.367 324.168,131.223 318.145,136.608 311.858 C 143.389 303.940,145.777 294.611,143.713 284.099 C 143.275 281.872,143.306 280.771,143.798 281.075 C 145.014 281.827,145.908 289.995,145.824 299.600 C 145.782 304.440,145.725 312.627,145.696 317.793 C 145.660 324.403,145.164 329.115,144.022 333.702 C 138.557 355.659,144.889 369.671,165.463 381.150 C 196.650 398.550,228.859 396.942,260.438 376.409 C 308.410 345.218,338.252 291.606,348.837 217.600 C 349.792 210.926,350.046 182.529,349.207 176.359 C 343.091 131.398,331.080 107.543,304.543 87.652 C 297.423 82.316,285.629 75.795,281.200 74.747 C 278.168 74.030,276.801 72.960,276.797 71.302 C 276.795 70.586,275.716 68.380,274.400 66.400 C 271.624 62.225,271.050 55.313,273.220 52.214 C 274.238 50.761,274.287 49.860,273.516 46.798 C 272.753 43.766,272.808 42.607,273.832 40.162 C 274.869 37.689,275.228 29.242,274.495 24.600 C 274.346 23.656,271.045 23.956,268.260 25.167 M261.162 45.000 C 260.818 45.990,260.433 48.780,260.306 51.200 C 259.906 58.828,258.617 62.753,256.170 63.800 C 254.977 64.311,253.096 65.471,251.991 66.378 C 250.089 67.939,249.553 67.982,241.991 67.179 C 237.596 66.712,231.902 66.564,229.338 66.851 L 224.675 67.372 225.182 60.686 C 225.889 51.355,226.127 50.582,228.714 49.244 C 232.974 47.041,242.762 44.650,250.000 44.044 C 262.447 43.002,261.873 42.953,261.162 45.000 " stroke="none" fill="#000000" fill-rule="evenodd"></path></g></svg>